<svg width="84" height="70" viewBox="0 0 84 70" fill="none" xmlns="http://www.w3.org/2000/svg">
<path d="M71 35.5C71 53.9619 55.3705 69 36 69C16.6295 69 1 53.9619 1 35.5C1 17.0381 16.6295 2 36 2C55.3705 2 71 17.0381 71 35.5Z" fill="white" stroke="#195257" stroke-width="2"/>
<path d="M29.75 22.375C29.75 21.3398 30.5859 20.5 31.625 20.5H32.875C33.9141 20.5 34.75 21.3398 34.75 22.375C34.75 23.4102 33.9141 24.25 32.875 24.25H31.625C30.5859 24.25 29.75 23.4102 29.75 22.375ZM32.875 26.125C33.9141 26.125 34.75 26.9609 34.75 28C34.75 29.0391 33.9141 29.875 32.875 29.875H31.625C30.5859 29.875 29.75 29.0391 29.75 28C29.75 26.9609 30.5859 26.125 31.625 26.125H32.875ZM21.625 31.75C22.6609 31.75 23.5 32.5859 23.5 33.625C23.5 34.6641 22.6609 35.5 21.625 35.5H20.375C19.3398 35.5 18.5 34.6641 18.5 33.625C18.5 32.5859 19.3398 31.75 20.375 31.75H21.625ZM16.0001 40.1406C16.0001 38.9609 16.9594 38 18.143 38H53.8594C55.0391 38 56 38.9609 56 40.1406C56 45.6484 52.5312 50.3516 47.6641 52.1797L47.5234 53.2422C47.3672 54.4922 46.3047 55.5 45.0469 55.5H26.9531C25.6953 55.5 24.6328 54.4922 24.4766 53.2422L24.3359 52.1797C19.4656 50.3516 16 45.6484 16 40.1406H16.0001ZM33.5 33.625C33.5 32.5859 34.3359 31.75 35.375 31.75H36.625C37.6641 31.75 38.5 32.5859 38.5 33.625C38.5 34.6641 37.6641 35.5 36.625 35.5H35.375C34.3359 35.5 33.5 34.6641 33.5 33.625ZM26 33.625C26 32.5859 26.8359 31.75 27.875 31.75H29.125C30.1641 31.75 31 32.5859 31 33.625C31 34.6641 30.1641 35.5 29.125 35.5H27.875C26.8359 35.5 26 34.6641 26 33.625ZM25.375 26.125C26.4141 26.125 27.25 26.9609 27.25 28C27.25 29.0391 26.4141 29.875 25.375 29.875H24.125C23.0898 29.875 22.25 29.0391 22.25 28C22.25 26.9609 23.0898 26.125 24.125 26.125H25.375ZM41 33.625C41 32.5859 41.8359 31.75 42.875 31.75H44.125C45.1641 31.75 46 32.5859 46 33.625C46 34.6641 45.1641 35.5 44.125 35.5H42.875C41.8359 35.5 41 34.6641 41 33.625ZM40.375 26.125C41.4141 26.125 42.25 26.9609 42.25 28C42.25 29.0391 41.4141 29.875 40.375 29.875H39.125C38.0859 29.875 37.25 29.0391 37.25 28C37.25 26.9609 38.0859 26.125 39.125 26.125H40.375ZM48.5 33.625C48.5 32.5859 49.3359 31.75 50.375 31.75H51.625C52.6641 31.75 53.5 32.5859 53.5 33.625C53.5 34.6641 52.6641 35.5 51.625 35.5H50.375C49.3359 35.5 48.5 34.6641 48.5 33.625ZM47.875 26.125C48.9141 26.125 49.75 26.9609 49.75 28C49.75 29.0391 48.9141 29.875 47.875 29.875H46.625C45.5859 29.875 44.75 29.0391 44.75 28C44.75 26.9609 45.5859 26.125 46.625 26.125H47.875ZM40.375 20.5C41.4141 20.5 42.25 21.3398 42.25 22.375C42.25 23.4102 41.4141 24.25 40.375 24.25H39.125C38.0859 24.25 37.25 23.4102 37.25 22.375C37.25 21.3398 38.0859 20.5 39.125 20.5H40.375Z" fill="#369EA7"/>
<path d="M29.5 60L10 44.5L29.5 52L83.5 1L29.5 60Z" fill="#195257" stroke="#195257"/>
</svg>
