<svg width="267" height="70" viewBox="0 0 267 70" fill="none" xmlns="http://www.w3.org/2000/svg">
<path d="M71 35.5C71 53.9619 55.3705 69 36 69C16.6295 69 1 53.9619 1 35.5C1 17.0381 16.6295 2 36 2C55.3705 2 71 17.0381 71 35.5Z" fill="white" stroke="#195257" stroke-width="2"/>
<path d="M29.75 22.375C29.75 21.3398 30.5859 20.5 31.625 20.5H32.875C33.9141 20.5 34.75 21.3398 34.75 22.375C34.75 23.4102 33.9141 24.25 32.875 24.25H31.625C30.5859 24.25 29.75 23.4102 29.75 22.375ZM32.875 26.125C33.9141 26.125 34.75 26.9609 34.75 28C34.75 29.0391 33.9141 29.875 32.875 29.875H31.625C30.5859 29.875 29.75 29.0391 29.75 28C29.75 26.9609 30.5859 26.125 31.625 26.125H32.875ZM21.625 31.75C22.6609 31.75 23.5 32.5859 23.5 33.625C23.5 34.6641 22.6609 35.5 21.625 35.5H20.375C19.3398 35.5 18.5 34.6641 18.5 33.625C18.5 32.5859 19.3398 31.75 20.375 31.75H21.625ZM16.0001 40.1406C16.0001 38.9609 16.9594 38 18.143 38H53.8594C55.0391 38 56 38.9609 56 40.1406C56 45.6484 52.5312 50.3516 47.6641 52.1797L47.5234 53.2422C47.3672 54.4922 46.3047 55.5 45.0469 55.5H26.9531C25.6953 55.5 24.6328 54.4922 24.4766 53.2422L24.3359 52.1797C19.4656 50.3516 16 45.6484 16 40.1406H16.0001ZM33.5 33.625C33.5 32.5859 34.3359 31.75 35.375 31.75H36.625C37.6641 31.75 38.5 32.5859 38.5 33.625C38.5 34.6641 37.6641 35.5 36.625 35.5H35.375C34.3359 35.5 33.5 34.6641 33.5 33.625ZM26 33.625C26 32.5859 26.8359 31.75 27.875 31.75H29.125C30.1641 31.75 31 32.5859 31 33.625C31 34.6641 30.1641 35.5 29.125 35.5H27.875C26.8359 35.5 26 34.6641 26 33.625ZM25.375 26.125C26.4141 26.125 27.25 26.9609 27.25 28C27.25 29.0391 26.4141 29.875 25.375 29.875H24.125C23.0898 29.875 22.25 29.0391 22.25 28C22.25 26.9609 23.0898 26.125 24.125 26.125H25.375ZM41 33.625C41 32.5859 41.8359 31.75 42.875 31.75H44.125C45.1641 31.75 46 32.5859 46 33.625C46 34.6641 45.1641 35.5 44.125 35.5H42.875C41.8359 35.5 41 34.6641 41 33.625ZM40.375 26.125C41.4141 26.125 42.25 26.9609 42.25 28C42.25 29.0391 41.4141 29.875 40.375 29.875H39.125C38.0859 29.875 37.25 29.0391 37.25 28C37.25 26.9609 38.0859 26.125 39.125 26.125H40.375ZM48.5 33.625C48.5 32.5859 49.3359 31.75 50.375 31.75H51.625C52.6641 31.75 53.5 32.5859 53.5 33.625C53.5 34.6641 52.6641 35.5 51.625 35.5H50.375C49.3359 35.5 48.5 34.6641 48.5 33.625ZM47.875 26.125C48.9141 26.125 49.75 26.9609 49.75 28C49.75 29.0391 48.9141 29.875 47.875 29.875H46.625C45.5859 29.875 44.75 29.0391 44.75 28C44.75 26.9609 45.5859 26.125 46.625 26.125H47.875ZM40.375 20.5C41.4141 20.5 42.25 21.3398 42.25 22.375C42.25 23.4102 41.4141 24.25 40.375 24.25H39.125C38.0859 24.25 37.25 23.4102 37.25 22.375C37.25 21.3398 38.0859 20.5 39.125 20.5H40.375Z" fill="#369EA7"/>
<path d="M29.5 60L10 44.5L29.5 52L83.5 1L29.5 60Z" fill="#195257" stroke="#195257"/>
<path d="M77.9425 53V23.8H84.0625L92.1825 47.4C92.1025 46.5467 92.0092 45.5467 91.9025 44.4C91.8225 43.2267 91.7558 42.04 91.7025 40.84C91.6492 39.6133 91.6225 38.5467 91.6225 37.64V23.8H96.1825V53H90.0625L82.0225 29.4C82.0758 30.1733 82.1425 31.1067 82.2225 32.2C82.3025 33.2933 82.3692 34.4133 82.4225 35.56C82.4758 36.7067 82.5025 37.76 82.5025 38.72V53H77.9425ZM111.047 53.4C108.247 53.4 106.047 52.6267 104.447 51.08C102.847 49.5067 102.047 47.3733 102.047 44.68V31H107.047V44.64C107.047 46.0533 107.394 47.1467 108.087 47.92C108.78 48.6667 109.767 49.04 111.047 49.04C112.3 49.04 113.274 48.6667 113.967 47.92C114.687 47.1467 115.047 46.0533 115.047 44.64V31H120.047V44.68C120.047 47.3733 119.234 49.5067 117.607 51.08C115.98 52.6267 113.794 53.4 111.047 53.4ZM137.431 53C135.325 53 133.671 52.4133 132.471 51.24C131.298 50.0667 130.711 48.4533 130.711 46.4V35.52H124.751V31H130.711V24.8H135.751V31H144.191V35.52H135.751V46.4C135.751 47.7867 136.431 48.48 137.791 48.48H143.791V53H137.431ZM150.776 53V31H155.496V35.2H156.736L155.256 37.76C155.256 35.3867 155.789 33.6 156.856 32.4C157.922 31.2 159.496 30.6 161.576 30.6C163.949 30.6 165.816 31.3333 167.176 32.8C168.536 34.2667 169.216 36.2933 169.216 38.88V40.48H163.976V39.24C163.976 37.8267 163.602 36.7333 162.856 35.96C162.136 35.1867 161.136 34.8 159.856 34.8C158.549 34.8 157.536 35.1867 156.816 35.96C156.122 36.7333 155.776 37.8267 155.776 39.24V53H150.776ZM174.04 53V48.44H181.72V35.52H175.04V31H186.52V48.44H193.32V53H174.04ZM183.72 27.32C182.707 27.32 181.907 27.0667 181.32 26.56C180.733 26.0267 180.44 25.32 180.44 24.44C180.44 23.56 180.733 22.8667 181.32 22.36C181.907 21.8267 182.707 21.56 183.72 21.56C184.733 21.56 185.533 21.8267 186.12 22.36C186.707 22.8667 187 23.56 187 24.44C187 25.32 186.707 26.0267 186.12 26.56C185.533 27.0667 184.733 27.32 183.72 27.32Z" fill="#195257"/>
<path d="M207.104 53.4C205.238 53.4 203.598 53.0533 202.184 52.36C200.798 51.64 199.718 50.64 198.944 49.36C198.171 48.0533 197.784 46.52 197.784 44.76V39.24C197.784 37.4533 198.171 35.92 198.944 34.64C199.718 33.36 200.798 32.3733 202.184 31.68C203.598 30.96 205.238 30.6 207.104 30.6C209.878 30.6 212.091 31.32 213.744 32.76C215.398 34.1733 216.264 36.1067 216.344 38.56H211.344C211.264 37.4133 210.851 36.5333 210.104 35.92C209.384 35.28 208.384 34.96 207.104 34.96C205.771 34.96 204.718 35.3333 203.944 36.08C203.171 36.8 202.784 37.84 202.784 39.2V44.76C202.784 46.12 203.171 47.1733 203.944 47.92C204.718 48.6667 205.771 49.04 207.104 49.04C208.384 49.04 209.384 48.7333 210.104 48.12C210.851 47.48 211.264 46.5867 211.344 45.44H216.344C216.264 47.8933 215.398 49.84 213.744 51.28C212.091 52.6933 209.878 53.4 207.104 53.4ZM231.009 53.4C229.142 53.4 227.515 53.04 226.129 52.32C224.742 51.6 223.662 50.6 222.889 49.32C222.142 48.0133 221.769 46.4933 221.769 44.76V39.24C221.769 37.5067 222.142 36 222.889 34.72C223.662 33.4133 224.742 32.4 226.129 31.68C227.515 30.96 229.142 30.6 231.009 30.6C232.849 30.6 234.449 30.96 235.809 31.68C237.195 32.4 238.262 33.4133 239.009 34.72C239.782 36 240.169 37.5067 240.169 39.24V43.2H226.609V44.76C226.609 46.3067 226.982 47.48 227.729 48.28C228.475 49.0533 229.582 49.44 231.049 49.44C232.169 49.44 233.075 49.2533 233.769 48.88C234.462 48.48 234.902 47.9067 235.089 47.16H240.009C239.635 49.0533 238.622 50.5733 236.969 51.72C235.342 52.84 233.355 53.4 231.009 53.4ZM235.329 40.4V39.2C235.329 37.68 234.969 36.52 234.249 35.72C233.529 34.8933 232.449 34.48 231.009 34.48C229.569 34.48 228.475 34.8933 227.729 35.72C226.982 36.5467 226.609 37.72 226.609 39.24V40.08L235.689 40L235.329 40.4ZM246.153 53V23.8H251.153V39.64H254.633L259.993 31H265.593L258.953 41.64L265.713 53H259.993L254.633 43.88H251.153V53H246.153Z" fill="#3BACB6"/>
</svg>
